<?xml version="1.0" standalone="no"?>
<!DOCTYPE svg PUBLIC "-//W3C//DTD SVG 20010904//EN"
 "http://www.w3.org/TR/2001/REC-SVG-20010904/DTD/svg10.dtd">
<svg version="1.0" xmlns="http://www.w3.org/2000/svg"
 width="400.000000pt" height="79.000000pt" viewBox="0 0 200.000000 79.000000"
 preserveAspectRatio="xMidYMid meet">

<g transform="translate(0.000000,79.000000) scale(0.100000,-0.100000)"
fill="#000000" stroke="none">
<path d="M1105 470 c-3 -6 1 -7 9 -4 18 7 21 14 7 14 -6 0 -13 -4 -16 -10z"/>
<path d="M460 400 c0 -48 1 -50 28 -49 16 1 20 3 10 6 -13 3 -18 15 -18 44 0
32 3 39 20 39 28 0 44 -34 29 -62 -11 -21 -11 -22 4 -9 36 29 8 81 -44 81 -28
0 -29 -1 -29 -50z"/>
<path d="M593 433 c-3 -10 -12 -33 -19 -50 -7 -19 -9 -33 -3 -33 5 0 9 5 9 10
0 14 43 12 59 -2 11 -11 12 -10 8 2 -3 8 -11 32 -18 53 -13 40 -26 47 -36 20z
m27 -40 c0 -7 -7 -13 -16 -13 -11 0 -14 5 -10 16 3 9 6 21 6 27 0 16 20 -14
20 -30z"/>
<path d="M671 398 c2 -52 2 -52 8 -13 l6 40 25 -37 c14 -21 28 -38 33 -38 4 0
6 24 6 53 -2 51 -2 51 -8 12 l-6 -40 -25 37 c-14 21 -28 38 -32 38 -5 0 -7
-24 -7 -52z"/>
<path d="M772 398 c1 -44 2 -46 5 -15 2 20 8 37 14 37 5 0 9 -3 9 -7 0 -5 11
-21 25 -38 l24 -30 -1 55 c-1 52 -1 53 -7 15 l-6 -40 -23 38 c-13 20 -28 37
-33 37 -5 0 -8 -24 -7 -52z"/>
<path d="M885 420 c8 -16 15 -39 15 -52 1 -18 4 -16 14 12 7 19 17 44 21 54 6
14 5 17 -3 12 -7 -4 -12 -14 -12 -22 0 -21 -18 -17 -25 6 -3 11 -11 20 -16 20
-5 0 -3 -13 6 -30z"/>
<path d="M1000 400 l0 -51 33 3 c31 3 32 5 32 48 0 43 -1 45 -32 48 l-33 3 0
-51z m55 25 c0 -5 -10 -11 -22 -13 -16 -2 -23 2 -23 13 0 11 7 15 23 13 12 -2
22 -7 22 -13z m0 -45 c0 -8 -10 -16 -22 -18 -22 -3 -32 16 -16 32 12 11 38 2
38 -14z"/>
<path d="M1090 400 c0 -48 1 -50 28 -49 23 2 24 2 5 6 -13 2 -23 11 -23 19 0
8 10 19 23 24 l22 9 -22 0 c-13 1 -23 7 -23 15 0 8 10 17 23 19 19 4 18 4 -5
6 -27 1 -28 -1 -28 -49z"/>
<path d="M1170 400 c0 -46 2 -50 23 -49 16 1 18 2 5 6 -13 3 -18 15 -18 44 0
36 3 40 21 37 32 -5 47 -33 31 -59 -11 -18 -11 -20 0 -17 17 6 23 55 7 74 -6
8 -24 14 -40 14 -28 0 -29 -2 -29 -50z"/>
<path d="M1285 404 c-9 -25 -14 -48 -11 -51 3 -4 6 -1 6 5 0 16 43 15 58 0 16
-16 15 -11 -4 45 -9 26 -19 47 -24 47 -4 0 -15 -21 -25 -46z m35 -4 c0 -19
-11 -26 -23 -14 -8 8 3 34 14 34 5 0 9 -9 9 -20z"/>
<path d="M1371 398 c1 -29 4 -43 6 -30 2 12 8 22 12 22 5 0 16 -10 25 -22 l17
-23 -6 22 c-3 12 -2 31 4 41 13 24 -3 42 -36 42 -21 0 -23 -4 -22 -52z m47 25
c-5 -26 -38 -29 -38 -4 0 15 6 21 21 21 14 0 19 -5 17 -17z"/>
<path d="M1460 400 c0 -44 3 -50 21 -50 36 0 59 19 59 48 0 36 -17 52 -52 52
-27 0 -28 -2 -28 -50z m66 15 c7 -29 -10 -55 -37 -55 -15 0 -19 8 -19 40 0 36
3 40 25 40 18 0 26 -7 31 -25z"/>
</g>
</svg>
